<?xml version="1.0" encoding="UTF-8" ?>
<!DOCTYPE svg PUBLIC "-//W3C//DTD SVG 1.1//EN" "http://www.w3.org/Graphics/SVG/1.1/DTD/svg11.dtd">
<svg width="1042pt" height="705pt" viewBox="0 0 1042 705" version="1.1" xmlns="http://www.w3.org/2000/svg">
<g id="#ffffffff">
</g>
<g id="#000000ff">
<path fill="#000000" opacity="1.00" d=" M 138.45 31.43 C 162.38 15.18 190.04 3.92 218.94 1.05 C 226.28 0.49 233.65 0.76 241.00 0.67 C 425.66 0.65 610.32 0.67 794.99 0.67 C 806.69 0.78 818.49 0.11 830.08 2.14 C 870.17 7.98 906.72 29.48 935.06 57.89 C 956.44 80.86 973.14 108.58 981.34 138.99 C 988.71 167.35 990.37 197.39 984.24 226.14 C 979.02 251.35 968.65 275.54 953.64 296.48 C 943.45 311.76 929.53 323.90 916.67 336.82 C 930.29 341.28 942.95 348.22 954.98 355.93 C 963.76 361.65 972.88 367.29 980.08 374.97 C 980.54 374.78 981.01 374.61 981.50 374.45 C 981.63 375.52 982.07 376.43 982.83 377.18 C 1010.50 402.82 1029.68 437.17 1038.14 473.86 C 1040.48 483.73 1041.57 493.89 1041.31 504.03 C 1041.07 518.02 1042.21 532.12 1039.94 545.99 C 1036.43 569.52 1027.45 592.01 1015.31 612.39 C 987.60 659.17 938.64 692.54 885.12 701.81 C 873.17 703.89 861.03 704.58 848.92 704.33 C 768.93 704.32 688.94 704.35 608.95 704.31 C 525.66 704.52 442.37 703.91 359.07 704.04 C 298.73 703.94 238.39 704.14 178.05 703.97 C 136.83 701.99 96.82 685.13 65.54 658.39 C 38.03 635.06 17.95 603.46 7.23 569.11 C 3.18 555.44 0.36 541.25 0.63 526.94 C 0.68 517.29 0.68 507.65 0.65 498.00 C 0.70 485.68 3.50 473.58 6.86 461.80 C 18.27 423.54 41.65 388.74 73.59 364.65 C 89.77 353.63 106.45 342.58 125.32 336.76 C 112.71 324.01 98.95 312.12 88.87 297.14 C 63.08 261.60 50.61 216.63 54.62 172.89 C 56.20 157.35 58.91 141.82 64.20 127.08 C 71.67 105.51 83.44 85.57 97.87 67.95 C 109.34 53.70 123.48 41.83 138.45 31.43 M 167.98 74.89 C 148.93 87.66 133.22 105.34 122.36 125.51 C 109.41 149.82 104.16 178.11 107.41 205.46 C 109.99 222.70 115.42 239.62 123.99 254.84 C 132.05 269.77 143.84 282.26 156.51 293.36 C 180.52 313.96 212.13 325.64 243.80 325.11 C 246.75 342.54 246.44 360.40 243.80 377.85 C 223.87 377.92 203.94 377.89 184.01 377.91 C 163.83 378.65 144.07 384.37 126.02 393.30 C 128.13 395.55 125.71 393.69 124.75 394.17 C 92.79 410.75 68.78 440.88 57.92 475.03 C 57.44 476.87 56.09 479.10 57.61 480.79 C 57.23 480.63 56.47 480.33 56.09 480.17 C 54.66 489.05 52.85 497.96 52.98 507.01 C 53.10 516.50 52.51 526.03 53.71 535.48 C 54.31 546.12 57.92 556.26 61.70 566.13 C 76.24 601.66 105.91 630.84 141.96 644.20 C 157.57 650.11 174.38 652.28 191.00 651.72 C 267.02 651.71 343.03 651.94 419.04 651.79 C 426.36 651.19 433.70 651.54 441.04 651.42 C 458.58 651.41 476.13 651.25 493.68 651.32 C 493.78 619.21 493.63 587.10 493.68 555.00 C 493.57 504.50 493.93 454.00 493.63 403.51 C 476.10 403.75 458.68 408.24 441.13 406.03 C 430.17 404.31 419.10 402.86 408.48 399.49 C 392.55 394.82 377.33 387.73 363.46 378.62 C 362.66 377.81 361.96 377.85 361.35 378.75 C 361.48 378.41 361.75 377.75 361.89 377.42 C 349.53 369.74 338.71 359.79 328.77 349.22 C 300.71 316.53 282.82 273.62 285.54 230.10 C 304.63 218.67 326.22 212.12 347.81 207.28 C 368.51 206.47 389.56 204.55 409.99 209.15 C 432.33 214.60 454.02 223.41 473.00 236.53 C 473.13 236.16 473.39 235.43 473.53 235.06 C 473.44 235.47 473.26 236.28 473.17 236.69 C 481.30 242.37 488.68 249.02 495.63 256.07 C 498.47 244.99 501.81 234.03 504.33 222.86 C 505.28 219.23 505.82 215.46 507.46 212.05 C 522.69 177.78 549.35 148.39 582.58 130.86 C 582.51 130.47 582.39 129.69 582.33 129.30 C 582.60 129.53 583.14 129.98 583.41 130.21 C 588.70 127.48 594.16 125.10 599.57 122.59 C 618.28 114.49 638.62 110.09 659.00 109.87 C 692.21 108.88 725.44 117.63 754.44 133.68 C 755.37 139.67 754.80 146.05 754.36 152.16 C 751.46 191.73 733.60 229.69 706.21 258.21 C 682.30 283.22 650.38 301.20 615.96 306.09 C 618.22 308.92 615.57 306.37 614.34 306.79 C 591.88 310.70 568.76 310.68 546.33 306.54 C 545.85 311.01 546.03 315.52 545.97 320.01 C 545.85 340.77 545.80 361.52 546.05 382.27 C 554.67 375.86 562.90 368.93 571.55 362.55 C 609.73 338.33 657.48 330.00 701.66 339.33 C 702.31 339.01 702.97 338.70 703.64 338.40 C 703.66 338.84 703.70 339.73 703.72 340.17 C 721.93 342.69 738.09 352.36 754.75 359.58 C 755.14 368.09 754.42 376.59 753.53 385.05 C 753.32 387.32 752.28 389.74 753.20 391.96 C 754.02 392.85 752.74 393.38 752.20 393.91 C 745.59 430.39 726.95 464.50 699.99 489.91 C 668.91 519.71 625.78 535.47 582.99 535.89 C 571.31 535.80 559.76 533.77 548.15 532.74 C 548.10 572.42 548.06 612.10 548.09 651.77 C 651.39 652.25 754.70 651.88 858.00 652.01 C 885.55 651.97 912.62 641.96 934.48 625.38 C 955.21 609.65 971.82 588.31 981.09 563.93 C 985.45 553.15 988.22 541.75 988.68 530.12 C 989.25 515.36 989.58 500.40 986.68 485.85 C 981.80 462.48 969.78 441.00 954.21 423.07 C 941.46 408.97 925.61 397.82 908.34 389.95 C 907.11 390.28 905.71 390.39 904.47 390.34 C 905.35 389.96 906.24 389.58 907.15 389.21 C 890.22 382.55 872.28 377.99 854.00 377.96 C 835.39 378.04 816.78 377.91 798.17 378.00 C 795.42 360.57 795.12 342.65 798.15 325.24 C 813.70 325.81 829.02 322.43 843.82 317.96 C 843.28 317.42 842.78 316.87 842.31 316.31 C 843.39 316.45 844.42 316.86 845.50 317.15 C 864.38 309.75 881.91 298.60 895.77 283.70 C 917.75 262.91 930.64 233.79 934.69 204.07 C 936.83 182.74 934.16 160.92 926.43 140.90 C 919.28 121.69 907.30 104.55 892.74 90.23 C 866.85 65.29 830.99 50.63 794.94 51.56 C 712.66 51.76 630.39 51.47 548.12 51.73 C 548.50 73.55 547.89 95.38 548.02 117.20 C 547.15 117.84 546.29 118.47 545.43 119.09 C 540.93 118.74 536.52 119.89 532.05 119.89 C 520.73 120.06 509.40 120.14 498.11 119.28 C 496.67 119.21 495.42 118.44 494.15 117.86 C 493.57 95.83 493.60 73.78 493.56 51.75 C 472.03 51.73 450.51 51.69 428.99 51.68 C 422.32 51.18 415.64 51.44 408.97 51.38 C 353.30 51.34 297.64 51.47 241.97 51.30 C 215.70 51.76 189.75 60.24 167.98 74.89 M 623.76 169.74 C 616.11 172.76 608.29 175.58 601.40 180.17 C 585.59 190.07 572.44 203.90 562.65 219.73 L 563.99 220.42 C 563.57 220.34 562.72 220.19 562.30 220.11 C 556.34 230.76 551.22 241.95 548.28 253.84 C 565.14 257.80 582.66 258.58 599.85 256.58 C 633.52 251.86 664.55 231.72 683.47 203.59 C 690.66 192.39 694.72 179.61 699.13 167.15 C 683.50 162.54 667.11 164.13 651.06 163.99 C 641.69 164.18 632.48 166.41 623.76 169.74 M 340.70 262.72 C 346.89 287.47 360.95 310.22 380.46 326.67 C 395.12 338.91 412.93 347.27 431.51 351.49 C 450.44 355.55 470.22 354.90 489.08 350.74 C 488.26 345.43 487.78 340.04 486.14 334.90 C 480.69 316.91 468.82 301.43 454.78 289.22 C 424.76 261.44 379.88 251.12 340.70 262.72 M 591.50 413.28 C 570.12 428.41 556.52 452.21 549.01 476.88 C 549.18 478.22 550.22 479.24 551.53 479.55 C 565.90 484.29 581.23 483.23 596.12 482.95 C 631.65 479.01 665.19 458.33 683.79 427.67 C 690.95 416.99 696.98 404.92 697.10 391.78 C 661.14 382.29 620.73 390.06 591.50 413.28 Z" />
</g>
<g id="#d3d3d3ff">
<path fill="#d3d3d3" opacity="1.00" d=" M 710.35 262.32 C 710.86 262.85 710.86 262.85 710.35 262.32 Z" />
</g>
<g id="#d1d1d1ff">
<path fill="#d1d1d1" opacity="1.00" d=" M 116.20 332.28 C 116.70 332.81 116.70 332.81 116.20 332.28 Z" />
</g>
</svg>
